# xmcd
#
# Track frame offsets:
#	187
#	19262
#	40675
#	61292
#	80385
#	101870
#	123850
#	143600
#	161972
#	179845
#	198667
#	219465
#
# Disc length: 3252 seconds
#
# Revision: 1
# Processed by: cddbd v1.5.1PL0 Copyright (c) Steve Scherf et al.
# Submitted via: CDex 1.50Beta5
#
DISCID=ad0cb20c
DTITLE=高山巌 - 心凍らせて
DYEAR=1993
DGENRE=Pop
TTITLE0=心凍らせて
TTITLE1=ふぞろいの人生
TTITLE2=渡良瀬橋
TTITLE3=祈るだけの恋
TTITLE4=希笛
TTITLE5=化粧
TTITLE6=三陸海岸
TTITLE7=泣かされたって
TTITLE8=泣くなよ
TTITLE9=握りこぶしのブルース
TTITLE10=酔わせてよ今夜だけ
TTITLE11=貴方のことだけ
EXTD=
EXTT0=
EXTT1=
EXTT2=
EXTT3=
EXTT4=
EXTT5=
EXTT6=
EXTT7=
EXTT8=
EXTT9=
EXTT10=
EXTT11=
PLAYORDER=
